<svg xmlns="http://www.w3.org/2000/svg" viewBox="0 0 1280 800" width="1280" height="800" font-family="Inter, Segoe UI, sans-serif">
  <defs>
    <linearGradient id="rs1bg" x1="0" y1="0" x2="1" y2="1">
      <stop offset="0" stop-color="#0a0d14"/>
      <stop offset="1" stop-color="#05060a"/>
    </linearGradient>
    <linearGradient id="rs1acc" x1="0" y1="0" x2="1" y2="0">
      <stop offset="0" stop-color="#7850ff"/>
      <stop offset="1" stop-color="#00d2ff"/>
    </linearGradient>
  </defs>
  <rect width="1280" height="800" fill="url(#rs1bg)"/>
  <rect x="40" y="36" width="1200" height="728" rx="16" fill="#0b0d14" stroke="rgba(255,255,255,.12)"/>
  <rect x="40" y="36" width="1200" height="52" rx="16" fill="#0f1220"/>
  <circle cx="72" cy="62" r="6" fill="#ff5f56"/><circle cx="94" cy="62" r="6" fill="#ffbd2e"/><circle cx="116" cy="62" r="6" fill="#27c93f"/>
  <rect x="160" y="50" width="900" height="24" rx="12" fill="rgba(255,255,255,.06)"/>
  <text x="180" y="66" fill="rgba(255,255,255,.5)" font-size="13">restaurant.app/dashboard</text>
  <!-- sidebar -->
  <rect x="40" y="88" width="230" height="676" fill="#0d101a"/>
  <text x="72" y="132" fill="#fff" font-size="19" font-weight="800">🍽 Bistro Admin</text>
  <rect x="56" y="160" width="198" height="40" rx="10" fill="rgba(120,80,255,.18)"/>
  <text x="76" y="185" fill="#fff" font-size="14" font-weight="600">▦  Dashboard</text>
  <text x="76" y="233" fill="rgba(255,255,255,.6)" font-size="14">🧾  Orders</text>
  <text x="76" y="277" fill="rgba(255,255,255,.6)" font-size="14">🍔  Menu</text>
  <text x="76" y="321" fill="rgba(255,255,255,.6)" font-size="14">🪑  Tables</text>
  <text x="76" y="365" fill="rgba(255,255,255,.6)" font-size="14">👥  Staff</text>
  <text x="76" y="409" fill="rgba(255,255,255,.6)" font-size="14">📊  Reports</text>
  <text x="76" y="453" fill="rgba(255,255,255,.6)" font-size="14">⚙  Settings</text>
  <!-- header -->
  <text x="300" y="132" fill="#fff" font-size="24" font-weight="800">Dashboard</text>
  <text x="300" y="158" fill="rgba(255,255,255,.55)" font-size="13">Welcome back, manager</text>
  <circle cx="1180" cy="128" r="18" fill="rgba(255,255,255,.08)"/><text x="1172" y="134" font-size="14">👤</text>
  <!-- stat cards -->
  <g>
    <rect x="300" y="184" width="212" height="112" rx="14" fill="#11141d" stroke="rgba(255,255,255,.1)"/>
    <text x="320" y="216" fill="rgba(255,255,255,.55)" font-size="13">Today's revenue</text>
    <text x="320" y="256" fill="#fff" font-size="30" font-weight="800">$2,480</text>
    <text x="320" y="282" fill="#27c93f" font-size="12">▲ 12% vs yesterday</text>
  </g>
  <g>
    <rect x="524" y="184" width="212" height="112" rx="14" fill="#11141d" stroke="rgba(255,255,255,.1)"/>
    <text x="544" y="216" fill="rgba(255,255,255,.55)" font-size="13">Orders</text>
    <text x="544" y="256" fill="#fff" font-size="30" font-weight="800">156</text>
    <text x="544" y="282" fill="#27c93f" font-size="12">▲ 8 active now</text>
  </g>
  <g>
    <rect x="748" y="184" width="212" height="112" rx="14" fill="#11141d" stroke="rgba(255,255,255,.1)"/>
    <text x="768" y="216" fill="rgba(255,255,255,.55)" font-size="13">Tables occupied</text>
    <text x="768" y="256" fill="#fff" font-size="30" font-weight="800">18 / 24</text>
    <text x="768" y="282" fill="rgba(0,210,255,.9)" font-size="12">75% capacity</text>
  </g>
  <g>
    <rect x="972" y="184" width="228" height="112" rx="14" fill="#11141d" stroke="rgba(255,255,255,.1)"/>
    <text x="992" y="216" fill="rgba(255,255,255,.55)" font-size="13">Staff on shift</text>
    <text x="992" y="256" fill="#fff" font-size="30" font-weight="800">12</text>
    <text x="992" y="282" fill="rgba(255,255,255,.5)" font-size="12">3 in kitchen</text>
  </g>
  <!-- chart -->
  <rect x="300" y="316" width="560" height="256" rx="14" fill="#11141d" stroke="rgba(255,255,255,.1)"/>
  <text x="322" y="348" fill="#fff" font-size="15" font-weight="700">Weekly sales</text>
  <g fill="url(#rs1acc)">
    <rect x="336" y="470" width="46" height="70" rx="6"/>
    <rect x="404" y="440" width="46" height="100" rx="6"/>
    <rect x="472" y="410" width="46" height="130" rx="6"/>
    <rect x="540" y="458" width="46" height="82" rx="6"/>
    <rect x="608" y="392" width="46" height="148" rx="6"/>
    <rect x="676" y="366" width="46" height="174" rx="6"/>
    <rect x="744" y="420" width="46" height="120" rx="6"/>
  </g>
  <g fill="rgba(255,255,255,.4)" font-size="11">
    <text x="348" y="558">Mon</text><text x="416" y="558">Tue</text><text x="484" y="558">Wed</text>
    <text x="552" y="558">Thu</text><text x="620" y="558">Fri</text><text x="690" y="558">Sat</text><text x="756" y="558">Sun</text>
  </g>
  <!-- recent orders -->
  <rect x="872" y="316" width="328" height="256" rx="14" fill="#11141d" stroke="rgba(255,255,255,.1)"/>
  <text x="894" y="348" fill="#fff" font-size="15" font-weight="700">Recent orders</text>
  <g font-size="13">
    <text x="894" y="386" fill="#fff">#1042 · Table 7</text><text x="1178" y="386" fill="#27c93f" text-anchor="end">Served</text>
    <text x="894" y="422" fill="#fff">#1043 · Table 2</text><text x="1178" y="422" fill="#ffbd2e" text-anchor="end">Cooking</text>
    <text x="894" y="458" fill="#fff">#1044 · Takeaway</text><text x="1178" y="458" fill="rgba(0,210,255,.9)" text-anchor="end">New</text>
    <text x="894" y="494" fill="#fff">#1045 · Table 11</text><text x="1178" y="494" fill="#ffbd2e" text-anchor="end">Cooking</text>
    <text x="894" y="530" fill="#fff">#1046 · Table 4</text><text x="1178" y="530" fill="#27c93f" text-anchor="end">Served</text>
  </g>
  <!-- footer bar -->
  <rect x="300" y="592" width="900" height="150" rx="14" fill="#0f1220" stroke="rgba(255,255,255,.08)"/>
  <text x="322" y="624" fill="#fff" font-size="14" font-weight="700">Top menu items today</text>
  <g font-size="13">
    <text x="322" y="660" fill="rgba(255,255,255,.75)">🍝 Pasta Alfredo</text><text x="560" y="660" fill="rgba(255,255,255,.5)" text-anchor="end">42 sold</text>
    <text x="322" y="692" fill="rgba(255,255,255,.75)">🍕 Margherita</text><text x="560" y="692" fill="rgba(255,255,255,.5)" text-anchor="end">37 sold</text>
    <text x="640" y="660" fill="rgba(255,255,255,.75)">🥗 Caesar Salad</text><text x="1178" y="660" fill="rgba(255,255,255,.5)" text-anchor="end">28 sold</text>
    <text x="640" y="692" fill="rgba(255,255,255,.75)">🍔 Classic Burger</text><text x="1178" y="692" fill="rgba(255,255,255,.5)" text-anchor="end">25 sold</text>
  </g>
</svg>
